<svg id="visual" viewBox="0 0 900 300" width="900" height="300" xmlns="http://www.w3.org/2000/svg" xmlns:xlink="http://www.w3.org/1999/xlink" version="1.1"><path d="M0 209L18.8 201.8C37.7 194.7 75.3 180.3 112.8 182.5C150.3 184.7 187.7 203.3 225.2 218.8C262.7 234.3 300.3 246.7 337.8 244.7C375.3 242.7 412.7 226.3 450.2 224C487.7 221.7 525.3 233.3 562.8 239.2C600.3 245 637.7 245 675.2 235.2C712.7 225.3 750.3 205.7 787.8 208.2C825.3 210.7 862.7 235.3 881.3 247.7L900 260L900 301L881.3 301C862.7 301 825.3 301 787.8 301C750.3 301 712.7 301 675.2 301C637.7 301 600.3 301 562.8 301C525.3 301 487.7 301 450.2 301C412.7 301 375.3 301 337.8 301C300.3 301 262.7 301 225.2 301C187.7 301 150.3 301 112.8 301C75.3 301 37.7 301 18.8 301L0 301Z" fill="#227d9d" stroke-linecap="round" stroke-linejoin="miter"></path></svg>