<svg id="visual" viewBox="0 0 900 300" width="900" height="300" xmlns="http://www.w3.org/2000/svg" xmlns:xlink="http://www.w3.org/1999/xlink" version="1.1"><path d="M0 237L25 235.8C50 234.7 100 232.3 150 237.8C200 243.3 250 256.7 300 263.2C350 269.7 400 269.3 450 262.7C500 256 550 243 600 235.7C650 228.3 700 226.7 750 229.2C800 231.7 850 238.3 875 241.7L900 245L900 301L875 301C850 301 800 301 750 301C700 301 650 301 600 301C550 301 500 301 450 301C400 301 350 301 300 301C250 301 200 301 150 301C100 301 50 301 25 301L0 301Z" fill="#0f4a74" stroke-linecap="round" stroke-linejoin="miter"></path></svg>