<svg id="visual" viewBox="0 0 900 300" width="900" height="300" xmlns="http://www.w3.org/2000/svg" xmlns:xlink="http://www.w3.org/1999/xlink" version="1.1"><path d="M0 89L18.8 92.2C37.7 95.3 75.3 101.7 112.8 106.3C150.3 111 187.7 114 225.2 107C262.7 100 300.3 83 337.8 78.5C375.3 74 412.7 82 450.2 85C487.7 88 525.3 86 562.8 82.3C600.3 78.7 637.7 73.3 675.2 74.8C712.7 76.3 750.3 84.7 787.8 86.2C825.3 87.7 862.7 82.3 881.3 79.7L900 77L900 0L881.3 0C862.7 0 825.3 0 787.8 0C750.3 0 712.7 0 675.2 0C637.7 0 600.3 0 562.8 0C525.3 0 487.7 0 450.2 0C412.7 0 375.3 0 337.8 0C300.3 0 262.7 0 225.2 0C187.7 0 150.3 0 112.8 0C75.3 0 37.7 0 18.8 0L0 0Z" fill="#ffdca1"></path><path d="M0 32L18.8 36.3C37.7 40.7 75.3 49.3 112.8 54.7C150.3 60 187.7 62 225.2 62.2C262.7 62.3 300.3 60.7 337.8 62.5C375.3 64.3 412.7 69.7 450.2 68.7C487.7 67.7 525.3 60.3 562.8 58.7C600.3 57 637.7 61 675.2 59.8C712.7 58.7 750.3 52.3 787.8 49.8C825.3 47.3 862.7 48.7 881.3 49.3L900 50L900 0L881.3 0C862.7 0 825.3 0 787.8 0C750.3 0 712.7 0 675.2 0C637.7 0 600.3 0 562.8 0C525.3 0 487.7 0 450.2 0C412.7 0 375.3 0 337.8 0C300.3 0 262.7 0 225.2 0C187.7 0 150.3 0 112.8 0C75.3 0 37.7 0 18.8 0L0 0Z" fill="#ffcb77"></path><path d="M0 2L18.8 4.7C37.7 7.3 75.3 12.7 112.8 15.5C150.3 18.3 187.7 18.7 225.2 25.2C262.7 31.7 300.3 44.3 337.8 49.7C375.3 55 412.7 53 450.2 46.7C487.7 40.3 525.3 29.7 562.8 30.8C600.3 32 637.7 45 675.2 47.7C712.7 50.3 750.3 42.7 787.8 37C825.3 31.3 862.7 27.7 881.3 25.8L900 24L900 0L881.3 0C862.7 0 825.3 0 787.8 0C750.3 0 712.7 0 675.2 0C637.7 0 600.3 0 562.8 0C525.3 0 487.7 0 450.2 0C412.7 0 375.3 0 337.8 0C300.3 0 262.7 0 225.2 0C187.7 0 150.3 0 112.8 0C75.3 0 37.7 0 18.8 0L0 0Z" fill="#e8ae54"></path></svg>