<svg id="visual" viewBox="0 0 900 300" width="900" height="300" xmlns="http://www.w3.org/2000/svg" xmlns:xlink="http://www.w3.org/1999/xlink" version="1.1"><path d="M0 120L21.5 114.8C43 109.7 86 99.3 128.8 97.2C171.7 95 214.3 101 257.2 109.2C300 117.3 343 127.7 385.8 131.2C428.7 134.7 471.3 131.3 514.2 127.2C557 123 600 118 642.8 113C685.7 108 728.3 103 771.2 99.8C814 96.7 857 95.3 878.5 94.7L900 94L900 0L878.5 0C857 0 814 0 771.2 0C728.3 0 685.7 0 642.8 0C600 0 557 0 514.2 0C471.3 0 428.7 0 385.8 0C343 0 300 0 257.2 0C214.3 0 171.7 0 128.8 0C86 0 43 0 21.5 0L0 0Z" fill="#FE6D73" stroke-linecap="round" stroke-linejoin="miter"></path></svg>