<svg id="visual" viewBox="0 0 900 300" width="900" height="300" xmlns="http://www.w3.org/2000/svg" xmlns:xlink="http://www.w3.org/1999/xlink" version="1.1"><path d="M0 220L30 225.8C60 231.7 120 243.3 180 249.3C240 255.3 300 255.7 360 246.7C420 237.7 480 219.3 540 214C600 208.7 660 216.3 720 221.5C780 226.7 840 229.3 870 230.7L900 232L900 301L870 301C840 301 780 301 720 301C660 301 600 301 540 301C480 301 420 301 360 301C300 301 240 301 180 301C120 301 60 301 30 301L0 301Z" fill="#5b7acf" stroke-linecap="round" stroke-linejoin="miter"></path></svg>