<svg id="visual" viewBox="0 0 900 300" width="900" height="300" xmlns="http://www.w3.org/2000/svg" xmlns:xlink="http://www.w3.org/1999/xlink" version="1.1"><path d="M0 241L21.5 233.3C43 225.7 86 210.3 128.8 210.8C171.7 211.3 214.3 227.7 257.2 239.2C300 250.7 343 257.3 385.8 255.7C428.7 254 471.3 244 514.2 239.3C557 234.7 600 235.3 642.8 242C685.7 248.7 728.3 261.3 771.2 257C814 252.7 857 231.3 878.5 220.7L900 210L900 301L878.5 301C857 301 814 301 771.2 301C728.3 301 685.7 301 642.8 301C600 301 557 301 514.2 301C471.3 301 428.7 301 385.8 301C343 301 300 301 257.2 301C214.3 301 171.7 301 128.8 301C86 301 43 301 21.5 301L0 301Z" fill="#00698f" stroke-linecap="round" stroke-linejoin="miter"></path></svg>