<svg id="visual" viewBox="0 0 900 300" width="900" height="300" xmlns="http://www.w3.org/2000/svg" xmlns:xlink="http://www.w3.org/1999/xlink" version="1.1"><path d="M0 133L13.7 129.7C27.3 126.3 54.7 119.7 82 122C109.3 124.3 136.7 135.7 163.8 135.2C191 134.7 218 122.3 245.2 119.8C272.3 117.3 299.7 124.7 327 131.7C354.3 138.7 381.7 145.3 409 141.5C436.3 137.7 463.7 123.3 491 122.5C518.3 121.7 545.7 134.3 573 133.2C600.3 132 627.7 117 654.8 117C682 117 709 132 736.2 133C763.3 134 790.7 121 818 115C845.3 109 872.7 110 886.3 110.5L900 111L900 0L886.3 0C872.7 0 845.3 0 818 0C790.7 0 763.3 0 736.2 0C709 0 682 0 654.8 0C627.7 0 600.3 0 573 0C545.7 0 518.3 0 491 0C463.7 0 436.3 0 409 0C381.7 0 354.3 0 327 0C299.7 0 272.3 0 245.2 0C218 0 191 0 163.8 0C136.7 0 109.3 0 82 0C54.7 0 27.3 0 13.7 0L0 0Z" fill="#237c9d"></path><path d="M0 102L13.7 100.8C27.3 99.7 54.7 97.3 82 97.2C109.3 97 136.7 99 163.8 100.5C191 102 218 103 245.2 101C272.3 99 299.7 94 327 91.8C354.3 89.7 381.7 90.3 409 94.7C436.3 99 463.7 107 491 111.3C518.3 115.7 545.7 116.3 573 114.8C600.3 113.3 627.7 109.7 654.8 103.5C682 97.3 709 88.7 736.2 87.3C763.3 86 790.7 92 818 97.7C845.3 103.3 872.7 108.7 886.3 111.3L900 114L900 0L886.3 0C872.7 0 845.3 0 818 0C790.7 0 763.3 0 736.2 0C709 0 682 0 654.8 0C627.7 0 600.3 0 573 0C545.7 0 518.3 0 491 0C463.7 0 436.3 0 409 0C381.7 0 354.3 0 327 0C299.7 0 272.3 0 245.2 0C218 0 191 0 163.8 0C136.7 0 109.3 0 82 0C54.7 0 27.3 0 13.7 0L0 0Z" fill="#196587"></path><path d="M0 87L13.7 88C27.3 89 54.7 91 82 88.3C109.3 85.7 136.7 78.3 163.8 73.8C191 69.3 218 67.7 245.2 69.2C272.3 70.7 299.7 75.3 327 80.2C354.3 85 381.7 90 409 89.5C436.3 89 463.7 83 491 78.3C518.3 73.7 545.7 70.3 573 68C600.3 65.7 627.7 64.3 654.8 69.3C682 74.3 709 85.7 736.2 90.2C763.3 94.7 790.7 92.3 818 86.5C845.3 80.7 872.7 71.3 886.3 66.7L900 62L900 0L886.3 0C872.7 0 845.3 0 818 0C790.7 0 763.3 0 736.2 0C709 0 682 0 654.8 0C627.7 0 600.3 0 573 0C545.7 0 518.3 0 491 0C463.7 0 436.3 0 409 0C381.7 0 354.3 0 327 0C299.7 0 272.3 0 245.2 0C218 0 191 0 163.8 0C136.7 0 109.3 0 82 0C54.7 0 27.3 0 13.7 0L0 0Z" fill="#104f70"></path><path d="M0 61L13.7 59.5C27.3 58 54.7 55 82 56C109.3 57 136.7 62 163.8 59.5C191 57 218 47 245.2 45.8C272.3 44.7 299.7 52.3 327 54.3C354.3 56.3 381.7 52.7 409 52.2C436.3 51.7 463.7 54.3 491 52.5C518.3 50.7 545.7 44.3 573 42.2C600.3 40 627.7 42 654.8 44.7C682 47.3 709 50.7 736.2 51.7C763.3 52.7 790.7 51.3 818 52.5C845.3 53.7 872.7 57.3 886.3 59.2L900 61L900 0L886.3 0C872.7 0 845.3 0 818 0C790.7 0 763.3 0 736.2 0C709 0 682 0 654.8 0C627.7 0 600.3 0 573 0C545.7 0 518.3 0 491 0C463.7 0 436.3 0 409 0C381.7 0 354.3 0 327 0C299.7 0 272.3 0 245.2 0C218 0 191 0 163.8 0C136.7 0 109.3 0 82 0C54.7 0 27.3 0 13.7 0L0 0Z" fill="#073a59"></path><path d="M0 18L13.7 19.8C27.3 21.7 54.7 25.3 82 26.3C109.3 27.3 136.7 25.7 163.8 26C191 26.3 218 28.7 245.2 30.7C272.3 32.7 299.7 34.3 327 33.5C354.3 32.7 381.7 29.3 409 30.2C436.3 31 463.7 36 491 37.8C518.3 39.7 545.7 38.3 573 38.8C600.3 39.3 627.7 41.7 654.8 42.2C682 42.7 709 41.3 736.2 37.8C763.3 34.3 790.7 28.7 818 28C845.3 27.3 872.7 31.7 886.3 33.8L900 36L900 0L886.3 0C872.7 0 845.3 0 818 0C790.7 0 763.3 0 736.2 0C709 0 682 0 654.8 0C627.7 0 600.3 0 573 0C545.7 0 518.3 0 491 0C463.7 0 436.3 0 409 0C381.7 0 354.3 0 327 0C299.7 0 272.3 0 245.2 0C218 0 191 0 163.8 0C136.7 0 109.3 0 82 0C54.7 0 27.3 0 13.7 0L0 0Z" fill="#002743"></path></svg>